<svg xmlns="http://www.w3.org/2000/svg" xmlns:xlink="http://www.w3.org/1999/xlink" viewBox="0 0 73.21 73.23"><defs><style>.cls-1{fill:url(#New_Gradient_Swatch_copy);}.cls-2{fill:url(#radial-gradient);}.cls-3{fill:url(#New_Gradient_Swatch_copy-2);}.cls-4{fill:url(#New_Gradient_Swatch_copy_3);}</style><linearGradient id="New_Gradient_Swatch_copy" x1="6.19" y1="6.2" x2="69.96" y2="69.97" gradientUnits="userSpaceOnUse"><stop offset="0" stop-color="#404042"/><stop offset="0.28" stop-color="#fff"/><stop offset="0.47" stop-color="#fff"/><stop offset="0.49" stop-color="#f6f6f6"/><stop offset="0.54" stop-color="#eeeeef"/><stop offset="0.63" stop-color="#ececed"/><stop offset="0.7" stop-color="#f9f9fa"/><stop offset="0.77" stop-color="#fff"/><stop offset="0.78" stop-color="#fbfbfb"/><stop offset="0.82" stop-color="#c3c3c3"/><stop offset="0.86" stop-color="#949495"/><stop offset="0.9" stop-color="#6f6f71"/><stop offset="0.94" stop-color="#555557"/><stop offset="0.97" stop-color="#464647"/><stop offset="1" stop-color="#404042"/></linearGradient><radialGradient id="radial-gradient" cx="20.11" cy="21.15" r="52.91" gradientTransform="translate(63.67 -7.52) rotate(76.51)" gradientUnits="userSpaceOnUse"><stop offset="0" stop-color="#fff"/><stop offset="0.11" stop-color="#f7f7f8"/><stop offset="0.27" stop-color="#e3e3e3"/><stop offset="0.46" stop-color="#c0c0c1"/><stop offset="0.68" stop-color="#919192"/><stop offset="0.92" stop-color="#555557"/><stop offset="1" stop-color="#404042"/></radialGradient><linearGradient id="New_Gradient_Swatch_copy-2" x1="12.26" y1="-3.26" x2="50.04" y2="58.62" xlink:href="#New_Gradient_Swatch_copy"/><linearGradient id="New_Gradient_Swatch_copy_3" x1="32.15" y1="29.05" x2="51.79" y2="62.38" gradientUnits="userSpaceOnUse"><stop offset="0" stop-color="#404042"/><stop offset="0.08" stop-color="#48484a"/><stop offset="1" stop-color="#9b9c9e"/></linearGradient></defs><title>Asset 1Gear</title><g id="Layer_2" data-name="Layer 2"><g id="OBJECTS"><path class="cls-1" d="M73.21,36.62a36.43,36.43,0,0,1-1.38,10c-.1.35-.19.7-.31,1.06a36.61,36.61,0,0,1-69.82,0c-.12-.36-.22-.71-.32-1.06a36.74,36.74,0,0,1,0-20c.1-.36.2-.71.32-1.06a36.61,36.61,0,0,1,69.82,0c.12.35.21.7.31,1.06A36.5,36.5,0,0,1,73.21,36.62Z"/><circle class="cls-2" cx="36.61" cy="36.61" r="35.1" transform="translate(-7.54 63.67) rotate(-76.51)"/><polygon class="cls-3" points="29.54 60.76 29.54 43.69 12.46 43.69 12.46 29.54 29.54 29.54 29.54 12.46 43.67 12.46 43.67 29.54 60.75 29.54 60.75 43.69 43.67 43.69 43.67 60.76 29.54 60.76"/><polygon class="cls-4" points="59.54 30.75 59.54 42.47 42.46 42.47 42.46 59.55 30.75 59.55 30.75 42.47 13.68 42.47 13.68 30.75 30.75 30.75 30.75 13.68 42.46 13.68 42.46 30.75 59.54 30.75"/></g></g></svg>